<?xml version="1.0" encoding="UTF-8"?>
<svg width="106px" height="184px" viewBox="0 0 106 184" version="1.1" xmlns="http://www.w3.org/2000/svg" xmlns:xlink="http://www.w3.org/1999/xlink">
    <!-- Generator: Sketch 40.3 (33839) - http://www.bohemiancoding.com/sketch -->
    <title>Group 4</title>
    <desc>Created with Sketch.</desc>
    <defs></defs>
    <g id="Page-1" stroke="none" stroke-width="1" fill="none" fill-rule="evenodd">
        <g id="Group-4">
            <path d="M103.004657,67.197 L103.004657,32.958 C103.004657,28.369 99.2846566,24.649 94.6956566,24.649 C90.1056566,24.649 86.3856566,28.369 86.3856566,32.959 L86.3856566,67.197 L85.1186566,67.197 L85.1186566,50.549 C85.1186566,44.422 80.1516566,39.454 74.0236566,39.454 C67.8966566,39.454 62.9296566,44.422 62.9296566,50.549 L62.9296566,66.884 C62.9296566,66.99 62.9416566,67.093 62.9446566,67.197 L61.4516566,67.197 L61.4516566,46.537 C61.4516566,40.409 56.4846566,35.442 50.3566566,35.442 C44.2286566,35.442 39.2616566,40.409 39.2616566,46.537 L39.2616566,66.884 C39.2616566,66.99 39.2736566,67.093 39.2766566,67.197 L37.9946566,67.197 L37.9946566,13.095 C37.9946566,6.967 33.0276566,2 26.9006566,2 C20.7726566,2 15.8056566,6.967 15.8056566,13.095 L15.8056566,71.217 L15.7896566,71.217 C14.9916566,71.217 14.2106566,71.315 13.4606566,71.501 C12.9606566,71.625 12.4736566,71.789 12.0056566,71.988 C10.8346566,72.487 9.77465664,73.213 8.88765664,74.12 C8.60965664,74.404 8.35465664,74.71 8.11265664,75.028 C7.94465664,75.248 7.78565664,75.475 7.63665664,75.711 C7.17665664,76.438 6.80265664,77.231 6.54565664,78.085 L3.02965664,89.747 C2.20265664,92.49 1.87965664,95.32 2.03965664,98.109 C2.30665664,102.757 3.91265664,107.292 6.75765664,111.128 L21.8106566,132.152 C23.6746566,134.016 25.9616566,135.602 28.4726566,136.843 C32.8086566,139.655 37.9766566,141.295 43.5306566,141.295 L75.2816566,141.295 C90.5936566,141.295 103.006657,128.882 103.006657,113.57 L103.006657,67.197 L103.004657,67.197" id="Fill-23" fill="#EBC3B7"></path>
            <path d="M73.558,78.396 C67.591,78.115 63,72.974 63,67 L63,75.401 C63,81.375 67.591,86.516 73.558,86.796 C79.929,87.097 85.189,82.02 85.189,75.714 L85.189,67.313 C85.189,73.619 79.929,78.696 73.558,78.396" id="Fill-24" fill="#E0998E"></path>
            <path d="M27.095,2 C20.967,2 16,6.967 16,13.095 L16,21.496 C16,15.368 20.967,10.401 27.095,10.401 C33.223,10.401 38.19,15.368 38.19,21.496 L38.19,13.095 C38.19,6.967 33.223,2 27.095,2" id="Fill-25" fill="#F2DFD6"></path>
            <path d="M50.095,35 C43.967,35 39,39.967 39,46.095 L39,54.495 C39,48.368 43.967,43.4 50.095,43.4 C56.223,43.4 61.19,48.368 61.19,54.495 L61.19,46.095 C61.19,39.967 56.223,35 50.095,35" id="Fill-26" fill="#F2DFD6"></path>
            <path d="M74.094,39 C67.967,39 63,43.968 63,50.095 L63,58.496 C63,52.368 67.967,47.401 74.094,47.401 C80.222,47.401 85.189,52.368 85.189,58.496 L85.189,50.095 C85.189,43.968 80.222,39 74.094,39" id="Fill-27" fill="#F2DFD6"></path>
            <path d="M75.083,140.724 L54.349,140.724 C58.383,136.012 59.896,129.821 58.878,124 C58.26,127.52 56.721,130.902 54.258,133.736 C48.144,140.771 36.666,140.539 28,136.139 C28.668,136.582 29.362,136.987 30.069,137.373 L30.069,180.897 L88.346,180.897 L88.346,137.35 C84.406,139.5 79.887,140.724 75.083,140.724" id="Fill-28" fill="#E0998E"></path>
            <path d="M51.195,104.806 C58.574,102.158 63.852,95.103 63.852,86.814 C63.852,85.826 63.674,84.882 63.363,84 C61.416,92.49 53.82,98.824 44.739,98.824 L29,98.824 L30.767,102.491 C37.38,99.55 45.235,100.328 51.195,104.806" id="Fill-29" fill="#E0998E"></path>
            <path d="M34.51,101.563015 C33.637,101.794015 32.837,102.036015 32.121,102.294015 C31.745,102.435015 31.368,102.575015 31,102.739015 L31,111.140015 C38.942,107.608015 48.685,109.420015 54.772,116.589015 C56.998,119.211015 58.425,122.285015 59.095,125.492015 C60.345,119.518015 58.92,113.074015 54.772,108.188015 C49.557,102.046015 41.661,99.8490145 34.51,101.563015" id="Fill-30" fill="#F2DFD6"></path>
            <path d="M3.02851245,97.931 L6.54451245,86.269 C7.77351245,82.191 11.5295124,79.4 15.7885124,79.4 L55.4545124,79.4 C58.9495124,79.4 61.9485124,81.517 63.2435124,84.538 C63.6865124,82.924 63.9275124,81.227 63.9275124,79.472 C63.9275124,74.793 60.1345124,71 55.4545124,71 L15.7885124,71 C11.5295124,71 7.77351245,73.79 6.54451245,77.868 L3.02851245,89.53 C1.92151245,93.202 1.71951245,97.028 2.36751245,100.706 C2.53251245,99.774 2.75251245,98.848 3.02851245,97.931" id="Fill-31" fill="#F2DFD6"></path>
            <polyline id="Fill-32" fill="#E0998E" points="29.523 99 18 99 20.555 102.667 31.29 102.667 29.523 99"></polyline>
            <path d="M95.31,25 C90.72,25 87,28.72 87,33.309 L87,41.71 C87,37.121 90.72,33.401 95.31,33.401 C99.899,33.401 103.619,37.121 103.619,41.71 L103.619,33.309 C103.619,28.72 99.899,25 95.31,25" id="Fill-33" fill="#F2DFD6"></path>
            <path d="M87.6292172,136.177 C86.9552172,136.546 86.5352172,137.253 86.5352172,138.021 L86.5352172,179.467 L32.4592172,179.467 L32.4592172,138.021 C32.4592172,137.253 32.0402172,136.546 31.3652172,136.178 C30.8412172,135.892 30.2982172,135.566 29.7042172,135.181 C29.6362172,135.137 29.5652172,135.097 29.4932172,135.061 C27.2032172,133.929 25.1372172,132.487 23.5052172,130.885 L8.53621717,109.977 C4.39921717,104.399 3.12621717,97.101 5.13121717,90.453 L8.64721717,78.791 C9.61521717,75.58 12.5172172,73.421 15.8852172,73.417 L55.5462172,73.417 C59.0602172,73.417 61.9192172,76.275 61.9192172,79.79 C61.9192172,89.17 54.2872172,96.801 44.9062172,96.801 L18.8342172,96.801 C17.6742172,96.801 16.7342172,97.742 16.7342172,98.901 C16.7342172,100.062 17.6742172,101.002 18.8342172,101.002 L27.8482172,101.002 L29.0412172,103.48 C29.5342172,104.503 30.7502172,104.95 31.7872172,104.487 C39.2402172,101.172 47.8072172,103.136 53.1052172,109.377 C58.8562172,116.15 58.7942172,126.319 52.9622172,133.029 C52.2012172,133.905 52.2932172,135.232 53.1692172,135.992 C53.5672172,136.338 54.0582172,136.507 54.5462172,136.507 C55.1332172,136.507 55.7172172,136.263 56.1322172,135.785 C63.3142172,127.522 63.3892172,115 56.3072172,106.658 C54.0912172,104.048 51.4102172,102.046 48.4752172,100.702 C58.4782172,99 66.1192172,90.27 66.1192172,79.79 C66.1192172,79.016 66.0302172,78.263 65.8722172,77.537 C67.9692172,79.259 70.5932172,80.341 73.4802172,80.477 C73.6952172,80.487 73.9102172,80.492 74.1242172,80.492 C77.5332172,80.492 80.7422172,79.211 83.2222172,76.846 C85.3722172,74.795 86.7182172,72.156 87.1472172,69.278 C87.9762172,68.997 88.5762172,68.222 88.5762172,67.298 L88.5762172,33.058 C88.5762172,29.634 91.3612172,26.849 94.7852172,26.849 C98.2092172,26.849 100.995217,29.634 100.995217,33.058 L100.997217,113.67 C100.997217,123.051 95.8752172,131.676 87.6292172,136.177 L87.6292172,136.177 Z M26.9912172,4.201 C31.9512172,4.201 35.9852172,8.235 35.9852172,13.195 L35.9852172,67.298 C35.9852172,68.156 36.5012172,68.891 37.2382172,69.216 L17.9962172,69.216 L17.9962172,13.195 C17.9962172,8.235 22.0312172,4.201 26.9912172,4.201 L26.9912172,4.201 Z M50.4472172,37.642 C55.4072172,37.642 59.4422172,41.677 59.4422172,46.637 L59.4422172,67.298 C59.4422172,68.16 59.3052172,69.011 59.0642172,69.831 C57.9622172,69.441 56.7812172,69.216 55.5462172,69.216 L41.7292172,69.216 C41.5732172,68.576 41.4842172,67.921 41.4652172,67.257 C41.4652172,67.252 41.4672172,67.246 41.4662172,67.24 L41.4532172,46.637 C41.4532172,41.677 45.4882172,37.642 50.4472172,37.642 L50.4472172,37.642 Z M74.1142172,41.654 C79.0742172,41.654 83.1092172,45.69 83.1092172,50.649 L83.1092172,67.298 C83.1092172,69.781 82.1192172,72.092 80.3222172,73.807 C78.5262172,75.52 76.1692172,76.404 73.6772172,76.282 C69.0452172,76.064 65.2712172,72.039 65.1332172,67.253 C65.1332172,67.249 65.1342172,67.244 65.1342172,67.24 L65.1202172,50.649 C65.1202172,45.69 69.1552172,41.654 74.1142172,41.654 L74.1142172,41.654 Z M105.195217,33.058 C105.195217,27.318 100.525217,22.649 94.7852172,22.649 C89.0452172,22.649 84.3762172,27.318 84.3762172,33.058 L84.3762172,42.362 C81.9552172,39.37 78.2542172,37.454 74.1142172,37.454 C69.5822172,37.454 65.5762172,39.752 63.2002172,43.242 C61.6982172,37.606 56.5492172,33.442 50.4472172,33.442 C46.3072172,33.442 42.6072172,35.358 40.1862172,38.35 L40.1862172,13.195 C40.1862172,5.92 34.2672172,0 26.9912172,0 C19.7152172,0 13.7962172,5.92 13.7962172,13.195 L13.7952172,69.398 C9.48321717,70.16 5.92821717,73.256 4.62521717,77.579 L1.10921717,89.24 C-1.27578283,97.153 0.238217168,105.84 5.14121717,112.45 L20.1932172,133.475 C20.2602172,133.568 20.3352172,133.656 20.4162172,133.737 C22.3872172,135.708 24.7772172,137.401 27.5222172,138.772 C27.7732172,138.934 28.0182172,139.087 28.2582172,139.233 L28.2582172,181.567 C28.2582172,182.728 29.1982172,183.668 30.3582172,183.668 L88.6352172,183.668 C89.7952172,183.668 90.7352172,182.728 90.7352172,181.567 L90.7352172,139.237 C99.6872172,133.851 105.197217,124.168 105.197217,113.67 L105.195217,33.058 L105.195217,33.058 Z" id="Fill-34" fill="#3E1429"></path>
        </g>
    </g>
</svg>